<?xml version="1.0" encoding="UTF-8" standalone="no"?>
<!DOCTYPE svg PUBLIC "-//W3C//DTD SVG 1.1//EN" "http://www.w3.org/Graphics/SVG/1.1/DTD/svg11.dtd">
<svg width="100%" height="100%" viewBox="0 0 2048 2048" version="1.1" xmlns="http://www.w3.org/2000/svg" xmlns:xlink="http://www.w3.org/1999/xlink" xml:space="preserve" xmlns:serif="http://www.serif.com/" style="fill-rule:evenodd;clip-rule:evenodd;stroke-linejoin:round;stroke-miterlimit:2;">
    <rect id="ArtBoard1" x="0" y="0" width="2048" height="2048" style="fill:none;"/>
    <g id="ArtBoard11" serif:id="ArtBoard1">
        <g transform="matrix(1.175085,0,0,1.175085,-145.199787,-29.947969)">
            <g transform="matrix(1,0,0,1,0.189633,0.146477)">
                <path d="M1633.371,1221.426C1630.356,1255.577 1603.91,1274.984 1587.659,1287.29C1564.982,1304.464 1536.115,1316.205 1513.408,1322.797C1483.812,1331.389 985.115,1430.723 811.055,1465.295C771.225,1473.331 731.512,1450.996 717.694,1412.783C662.275,1259.552 509.52,837.137 450.572,674.129C443.576,654.784 445.719,633.312 456.398,615.731C467.078,598.15 485.145,586.352 505.537,583.643L663.694,562.636L666.854,586.427L508.697,607.434C495.506,609.187 483.819,616.818 476.91,628.191C470.002,639.564 468.616,653.454 473.142,665.967C532.089,828.975 684.845,1251.39 740.263,1404.621C750.041,1431.659 778.144,1447.461 806.326,1441.766L806.365,1441.758C979.908,1407.288 1477.206,1308.316 1506.716,1299.749C1527.016,1293.855 1552.896,1283.51 1573.17,1268.157C1585.554,1258.779 1595.885,1247.567 1600.719,1234.067C1612.519,1201.113 1605.978,1177.279 1589.576,1163.791C1564.255,1142.969 1518.461,1148.678 1423.792,1183.009C1280.479,1234.98 1049.469,1309.49 915.031,1352.251C888.426,1360.749 859.436,1357.184 835.683,1342.493C811.931,1327.802 795.793,1303.456 791.514,1275.857C757.447,1056.166 681.435,565.889 648.214,351.612C643.972,324.25 650.854,296.328 667.327,274.072C683.8,251.816 708.493,237.077 735.901,233.141L1364.682,142.837C1418.306,135.136 1468.212,171.821 1476.864,225.3L1630.202,1174.104C1630.202,1174.104 1635.256,1200.08 1633.371,1221.426Z" style="fill:white;"/>
            </g>
            <g transform="matrix(1,0,0,1,10.594872,-28.666408)">
                <path d="M1289.852,530.246C1289.852,530.246 1310.626,492.311 1292.561,442.634C1274.497,392.957 1229.336,370.377 1229.336,370.377C1229.336,370.377 1252.249,410.407 1243.282,450.3C1235.514,484.86 1224.315,495.526 1224.315,495.526C1224.315,495.526 1169.681,488.654 1138.068,512.138C1106.456,535.622 1098.37,560.955 1098.37,560.955C1098.37,560.955 1058.048,520.449 1018.913,520.751C970.539,521.124 953.856,532.955 953.856,532.955C953.856,532.955 934.416,524.87 919.555,492.376C904.071,458.516 913.211,412.828 913.211,412.828C913.211,412.828 870.298,448.248 871.201,503.344C872.104,558.44 900.082,580.804 900.082,580.804C900.082,580.804 850.933,671.837 914.201,738.223C983.546,810.986 1061.338,861.35 1084.822,880.317C1108.306,899.285 1118.66,916.908 1119.563,925.037C1120.466,933.166 1114.166,994.504 1151.197,1030.937C1188.229,1067.369 1217.12,1090.176 1292.186,1090.304C1372.344,1090.44 1425.319,1007.664 1425.399,974.786C1425.58,900.607 1384.689,880.693 1384.689,880.693L1412.689,843.661L1286.239,829.21L1335.013,943.918L1362.109,908.693C1362.109,908.693 1408.812,960.54 1354.327,1015.93C1299.418,1071.751 1213.541,1032.166 1190.057,1004.166C1166.574,976.166 1154.435,933.896 1175.209,887.832C1195.982,841.768 1279.962,755.738 1304.368,704.566C1326.045,659.116 1332.809,627.171 1319.109,580.609C1311.685,555.376 1289.852,530.246 1289.852,530.246Z" style="fill:rgb(166,35,35);"/>
            </g>
            <g transform="matrix(1,0,0,1,-29.668211,63.224998)">
                <path d="M1533.885,1299.749C1566.537,1293.121 1588.839,1277.467 1599.01,1259.752C1598.889,1294.651 1582.286,1305.655 1540.008,1317.493C1507.398,1326.625 975.328,1430.464 804.471,1463.172C768.62,1470.131 732.483,1452.551 715.832,1420.044C643.293,1278.443 438.533,659.637 438.533,659.637C433.827,649.294 434.776,615.616 460.731,602.95C456.592,621.502 455.221,638.543 459.893,648.695C459.893,648.695 664.654,1267.501 737.193,1409.102C748.975,1432.104 774.55,1444.542 799.919,1439.607L799.954,1439.6C970.298,1406.991 1503.827,1308.475 1533.885,1299.749Z" style="fill:white;"/>
            </g>
            <g transform="matrix(1,0,0,1,-60.305217,123.920955)">
                <path d="M1532.729,1292.812C1565.381,1286.185 1580.343,1282.369 1595.96,1266.785C1590.866,1293.633 1581.13,1298.718 1538.852,1310.557C1506.242,1319.688 996.024,1425.774 810.334,1460.572C771.37,1467.977 730.096,1447.272 712,1412.689C633.164,1262.039 438.584,698.115 438.584,698.115C433.879,687.772 433.88,651.966 451.075,638.59C445.516,663.298 451.485,676.787 456.157,686.939C456.157,686.939 656.378,1250.398 735.215,1401.047C748.02,1425.52 777.815,1440.752 805.387,1435.502L805.425,1435.495C990.557,1400.801 1502.671,1301.539 1532.729,1292.812Z" style="fill:white;"/>
            </g>
            <g transform="matrix(1,0,0,1,-85.708088,183.446151)">
                <path d="M1518.717,1291.61C1551.369,1284.982 1577.519,1274.967 1595.089,1257.252C1583.499,1294.739 1560.458,1293.816 1518.181,1305.655C1485.57,1314.786 1018.646,1414.588 815.111,1452.73C772.403,1460.846 730.355,1443.344 710.52,1405.437C624.108,1240.311 445.395,736.631 445.395,736.631C440.689,726.288 437.613,690.718 454.807,677.342C457.062,707.496 460.189,721.695 464.861,731.847C464.861,731.847 643.553,1230.551 729.966,1395.677C744.002,1422.501 782.468,1437.005 812.689,1431.25L812.731,1431.242C1015.653,1393.215 1488.659,1300.336 1518.717,1291.61Z" style="fill:white;"/>
            </g>
        </g>
    </g>
</svg>
